# xmcd
#
# Track frame offsets:
#	150
#	21343
#	32363
#	54320
#	68900
#	90318
#	106135
#	120743
#	137805
#	151358
#
# Disc length: 2459 seconds
#
# Revision: 0
# Processed by: cddbd v1.4PL0 Copyright (c) Steve Scherf et al.
# Submitted via: audiograbber 1.80.04
#
DISCID=7709990a
DTITLE=INTI-ILLIMANI - Hacia La Libertad
DYEAR=1900
DGENRE=
TTITLE0=Arriba Quemando El Sol
TTITLE1=La Patria Prisionera
TTITLE2=El Arado
TTITLE3=Cancion A Victor
TTITLE4=Ciudad Ho Chi Minh
TTITLE5=Chiloe
TTITLE6=Vientos Del Pueblo
TTITLE7=Hacia La Libertad
TTITLE8=Cai Cai Vilu
TTITLE9=Canto A Los Caidos
EXTD=
EXTT0=
EXTT1=
EXTT2=
EXTT3=
EXTT4=
EXTT5=
EXTT6=
EXTT7=
EXTT8=
EXTT9=
PLAYORDER=
